#!OML:ASF H:\Terrain\Patient Classification 1\Takeo\Monday\TakeoMonday.ASF
:FULLY-SPECIFIED
:DEGREES
808
root 4.15228 15.0098 3.64933 -176.034 77.2646 -182.929
lowerback 27.649 -7.87568 -1.37561
upperback 13.7662 -8.93455 -7.50474
thorax -0.76207 -3.53829 -4.95518
lowerneck -7.5876 -12.3904 -9.91718
upperneck -1.04553 -16.1775 13.8556
head 2.87353 -7.79296 4.73833
rclavicle 3.18055e-015 1.59028e-014
rhumerus -51.8854 -42.569 14.7097
rradius 27.5322
rwrist -14.7626
rhand -52.9471 27.6626
rfingers 7.12502
rthumb -25.4151 -0.663234
lclavicle 3.18055e-015 1.59028e-014
lhumerus -11.3371 8.60749 76.5875
lradius 87.4687
lwrist 33.6583
lhand -38.7159 22.3366
lfingers 7.12502
lthumb -11.7297 51.9882
rfemur -48.8759 -12.1793 23.2641
rtibia 77.7762
rfoot -33.6598 -9.77482
rtoes 0.0837816
lfemur -44.7234 27.203 -9.49054
ltibia 69.9137
lfoot -20.5973 3.47447
ltoes -15.2904
809
root 4.15729 15.0113 3.67115 -175.139 77.3253 -181.721
lowerback 27.7636 -7.9935 -1.1854
upperback 13.9135 -9.01534 -7.63659
thorax -0.704704 -3.55468 -5.1817
lowerneck -7.62777 -12.2843 -10.1166
upperneck -1.2163 -16.0155 14.231
head 2.86276 -7.7047 4.89531
rclavicle -1.41535e-013 -6.36111e-015
rhumerus -52.5356 -42.8104 15.3987
rradius 27.5386
rwrist -14.8242
rhand -53.0228 27.6644
rfingers 7.12502
rthumb -25.4876 -0.651108
lclavicle -1.41535e-013 -6.36111e-015
lhumerus -11.2645 8.65688 76.4921
lradius 87.507
lwrist 33.9843
lhand -39.4196 22.3358
lfingers 7.12502
lthumb -12.4082 51.9475
rfemur -48.4752 -12.1391 23.5916
rtibia 77.6194
rfoot -33.5593 -9.41916
rtoes 1.47549
lfemur -44.2487 27.3039 -8.92424
ltibia 69.6846
lfoot -20.3382 3.00221
ltoes -13.0765
810
root 4.16906 15.0161 3.69258 -174.412 77.5151 -180.825
lowerback 27.7253 -7.9916 -1.22761
upperback 13.9933 -9.01086 -7.77177
thorax -0.611392 -3.54546 -5.31724
lowerneck -7.91794 -12.151 -10.0602
upperneck -1.01696 -15.8424 14.3597
head 2.95662 -7.59964 4.92011
rclavicle 6.83819e-014 9.54166e-014
rhumerus -53.4217 -43.2876 16.3103
rradius 27.6162
rwrist -14.3969
rhand -53.0247 27.3032
rfingers 7.12502
rthumb -25.4894 -1.01198
lclavicle 6.83819e-014 9.54166e-014
lhumerus -11.1853 8.70961 76.2841
lradius 87.3814
lwrist 33.8561
lhand -41.4379 20.9499
lfingers 7.12502
lthumb -14.3536 50.4337
rfemur -48.1929 -11.9503 23.8514
rtibia 77.4541
rfoot -33.5168 -9.12095
rtoes 2.55564
lfemur -43.8572 27.5147 -8.50108
ltibia 69.484
lfoot -20.2283 2.71584
ltoes -11.5394
811
root 4.18302 15.033 3.71603 -173.688 77.8485 -180.08
lowerback 27.5766 -7.93041 -1.576
upperback 13.9778 -9.02155 -7.80717
thorax -0.513603 -3.57179 -5.17237
lowerneck -8.18866 -12.0449 -10.0161
upperneck -0.749375 -15.7058 14.3366
head 3.05828 -7.51544 4.89831
rclavicle -6.20208e-014 -3.18055e-015
rhumerus -53.4127 -43.453 16.4774
rradius 27.7272
rwrist -14.2192
rhand -52.9415 25.5954
rfingers 7.12502
rthumb -25.4097 -2.73118
lclavicle -6.20208e-014 -3.18055e-015
lhumerus -11.2748 9.13237 76.3287
lradius 87.4366
lwrist 33.7283
lhand -46.104 19.3516
lfingers 7.12502
lthumb -18.8457 48.4587
rfemur -48.0136 -11.5396 24.0387
rtibia 77.2716
rfoot -33.6072 -8.8273
rtoes 3.44871
lfemur -43.5402 27.7945 -8.19146
ltibia 69.2614
lfoot -20.1187 3.16034
ltoes -13.1329
812
root 4.1933 15.0503 3.74242 -172.856 78.1981 -179.365
lowerback 27.2908 -7.86895 -1.89019
upperback 13.8375 -9.05366 -7.83537
thorax -0.500473 -3.61939 -5.03438
lowerneck -7.89958 -11.9377 -10.1759
upperneck -0.742562 -15.5795 14.4904
head 3.02621 -7.46194 4.996
rclavicle 1.09729e-013 3.18055e-014
rhumerus -53.0822 -43.22 16.204
rradius 27.9162
rwrist -14.2969
rhand -53.2185 24.112
rfingers 7.12502
rthumb -25.675 -4.17658
lclavicle 1.09729e-013 3.18055e-014
lhumerus -11.6295 9.42822 76.2976
lradius 87.5436
lwrist 34.047
lhand -38.4037 22.1702
lfingers 7.12502
lthumb -11.4286 51.8387
rfemur -47.992 -11.0553 24.258
rtibia 77.0451
rfoot -33.652 -8.73211
rtoes 4.88222
lfemur -43.4005 28.0365 -7.9094
ltibia 69.0718
lfoot -20.0832 3.48531
ltoes -14.7778
813
root 4.20336 15.0668 3.7548 -172.929 78.3614 -179.076
lowerback 27.588 -7.96853 -2.04808
upperback 13.746 -9.2469 -8.0207
thorax -0.761588 -3.71559 -5.06201
lowerneck -7.57461 -11.7895 -10.1232
upperneck -0.647791 -15.4246 14.5588
head 2.98655 -7.39677 5.0405
rclavicle 7.95139e-015 1.59028e-014
rhumerus -52.8198 -43.0513 15.7954
rradius 28.0091
rwrist -14.2406
rhand -53.9688 24.5196
rfingers 7.12502
rthumb -26.3935 -3.66328
lclavicle 7.95139e-015 1.59028e-014
lhumerus -12.1214 9.51475 75.9941
lradius 87.5408
lwrist 34.2699
lhand -33.8843 23.1234
lfingers 7.12502
lthumb -7.06787 52.9854
rfemur -47.3863 -11.0227 24.3536
rtibia 76.6419
rfoot -33.4278 -9.26916
rtoes 2.9451
lfemur -42.715 27.9183 -7.52319
ltibia 68.9078
lfoot -20.3189 3.57369
ltoes -15.5738
814
root 4.20833 15.0722 3.76701 -173.37 78.4996 -179.276
lowerback 27.7679 -7.98339 -2.2099
upperback 13.7504 -9.3054 -8.15188
thorax -0.839061 -3.74142 -5.08508
lowerneck -7.8678 -11.7613 -9.74462
upperneck -0.39922 -15.4033 14.2366
head 3.04654 -7.37601 4.87004
rclavicle -3.18055e-015 -2.22639e-014
rhumerus -52.8409 -43.0057 15.7283
rradius 28.0452
rwrist -14.3982
rhand -54.2955 24.8122
rfingers 7.12502
rthumb -26.7061 -3.32332
lclavicle -3.18055e-015 -2.22639e-014
lhumerus -12.1239 9.47661 76.0321
lradius 87.3645
lwrist 34.1385
lhand -32.7107 23.2749
lfingers 7.12502
lthumb -5.93494 53.1718
rfemur -46.9996 -11.0382 24.3876
rtibia 76.3167
rfoot -33.2274 -9.85264
rtoes -0.496269
lfemur -42.2371 27.9396 -7.33244
ltibia 68.7684
lfoot -20.393 3.63146
ltoes -16.2916
815
root 4.20662 15.0782 3.78139 -172.626 78.5538 -178.446
lowerback 27.7891 -7.93507 -2.14457
upperback 13.8667 -9.20075 -8.01932
thorax -0.696063 -3.68612 -5.01402
lowerneck -8.4542 -11.9328 -9.18235
upperneck -0.513724 -15.5821 13.4432
head 3.00925 -7.46014 4.50978
rclavicle 1.90833e-014 -9.54166e-015
rhumerus -53.1257 -43.106 16.1554
rradius 28.1992
rwrist -15.0882
rhand -54.0534 24.7956
rfingers 7.12502
rthumb -26.4744 -3.37504
lclavicle 1.90833e-014 -9.54166e-015
lhumerus -11.5568 9.42794 76.6777
lradius 87.0461
lwrist 33.993
lhand -32.1574 23.5584
lfingers 7.12502
lthumb -5.40066 53.4695
rfemur -46.856 -10.974 24.6333
rtibia 76.0946
rfoot -33.2106 -10.1253
rtoes -1.98513
lfemur -42.0955 27.9522 -7.03328
ltibia 68.6381
lfoot -20.2088 3.73024
ltoes -16.8513
816
root 4.20855 15.0864 3.79437 -172.19 78.7184 -178.085
lowerback 27.5036 -7.87868 -2.13535
upperback 13.9349 -9.1118 -8.04016
thorax -0.485959 -3.64363 -5.09722
lowerneck -8.15958 -12.1997 -7.14449
upperneck -1.62015 -15.9499 11.5443
head 2.33417 -7.72135 3.69687
rclavicle 4.77083e-014 2.54444e-014
rhumerus -53.4605 -43.3019 16.4896
rradius 28.283
rwrist -15.4482
rhand -53.8766 25.1408
rfingers 7.12502
rthumb -26.3052 -3.05526
lclavicle 4.77083e-014 2.54444e-014
lhumerus -11.1608 9.3029 76.9779
lradius 86.7733
lwrist 34.122
lhand -32.252 23.722
lfingers 7.12502
lthumb -5.49208 53.6309
rfemur -46.8923 -10.7669 24.7698
rtibia 75.9354
rfoot -33.0665 -10.1387
rtoes -1.8232
lfemur -42.0653 28.0204 -6.9351
ltibia 68.4902
lfoot -20.0019 3.89742
ltoes -17.0749
817
root 4.21486 15.0942 3.80808 -171.52 78.9327 -177.406
lowerback 27.2824 -7.82674 -2.1414
upperback 13.8791 -9.06466 -8.23026
thorax -0.474371 -3.62127 -5.32995
lowerneck -8.32426 -11.876 -9.01299
upperneck -0.759155 -15.5226 13.7132
head 2.92141 -7.43383 4.5847
rclavicle -1.1291e-013 -2.22639e-014
rhumerus -53.5208 -43.1716 16.2551
rradius 28.2378
rwrist -15.5717
rhand -53.833 25.716
rfingers 7.12502
rthumb -26.2634 -2.48627
lclavicle -1.1291e-013 -2.22639e-014
lhumerus -11.2909 9.09969 76.7438
lradius 86.7194
lwrist 34.3333
lhand -32.9072 23.363
lfingers 7.12502
lthumb -6.1246 53.2545
rfemur -46.7932 -10.5034 24.9483
rtibia 75.7727
rfoot -32.9422 -9.88555
rtoes -0.427965
lfemur -41.83 28.1531 -6.69506
ltibia 68.31
lfoot -19.848 3.89142
ltoes -16.6582
818
root 4.21881 15.1046 3.82278 -170.791 79.0613 -176.539
lowerback 27.3544 -7.75501 -2.25169
upperback 13.8218 -9.01344 -8.28694
thorax -0.559594 -3.60078 -5.33628
lowerneck -8.09705 -11.6821 -9.2301
upperneck -0.858803 -15.2687 14.1392
head 2.88368 -7.30887 4.78144
rclavicle -4.45278e-014 -1.11319e-014
rhumerus -53.3362 -42.8363 15.8124
rradius 28.3333
rwrist -16.1336
rhand -53.5828 26.9998
rfingers 7.12502
rthumb -26.0239 -1.23794
lclavicle -4.45278e-014 -1.11319e-014
lhumerus -11.5388 8.96502 76.7371
lradius 86.7939
lwrist 34.332
lhand -32.6563 23.3832
lfingers 7.12502
lthumb -5.88237 53.2815
rfemur -46.526 -10.3533 25.1518
rtibia 75.5706
rfoot -32.9057 -9.72847
rtoes 1.24095
lfemur -41.4664 28.1892 -6.3468
ltibia 68.0983
lfoot -19.7981 3.88213
ltoes -16.4568
